<?xml version="1.0" standalone="no"?><!DOCTYPE svg PUBLIC "-//W3C//DTD SVG 1.1//EN" "http://www.w3.org/Graphics/SVG/1.1/DTD/svg11.dtd"><svg t="1611837956915" class="icon" viewBox="0 0 1024 1024" version="1.1" xmlns="http://www.w3.org/2000/svg" p-id="7678" id="mx_n_1611837956919" xmlns:xlink="http://www.w3.org/1999/xlink" width="25" height="25"><defs><style type="text/css"></style></defs><path d="M946.99 870.09c0-0.51 0.01-1.02 0.01-1.53 0-152.39-86.55-284.56-213.18-350.05 27.59-37.3 43.91-83.44 43.91-133.4 0-124.03-100.54-224.57-224.57-224.57S328.59 261.09 328.59 385.11c0 49.96 16.32 96.1 43.91 133.4C245.88 584 159.32 716.17 159.32 868.56c0 0.51 0.01 1.02 0.01 1.53h787.66z" fill="#99D1FF" p-id="7679"></path><path d="M490.74 629.68c-65.33 0-126.74-25.44-172.94-71.63-46.19-46.19-71.63-107.61-71.63-172.94s25.44-126.74 71.63-172.94c46.19-46.19 107.61-71.63 172.94-71.63s126.74 25.44 172.94 71.63c46.19 46.19 71.63 107.61 71.63 172.94s-25.44 126.74-71.63 172.94c-46.2 46.19-107.61 71.63-172.94 71.63z m0-449.14c-112.8 0-204.57 91.77-204.57 204.57s91.77 204.57 204.57 204.57 204.57-91.77 204.57-204.57-91.77-204.57-204.57-204.57z" fill="#0072F0" p-id="7680"></path><path d="M882.32 883.46c-11.05 0-20-8.95-20-20 0-136.77-74.74-262.34-195.04-327.69-9.71-5.27-13.3-17.42-8.03-27.12 5.27-9.71 17.42-13.3 27.12-8.03 133.2 72.36 215.95 211.39 215.95 362.84 0 11.04-8.96 20-20 20zM97 883.46c-11.05 0-20-8.95-20-20 0-150.92 82.32-289.72 214.84-362.24 9.69-5.3 21.84-1.75 27.15 7.94 5.3 9.69 1.75 21.84-7.94 27.15C191.35 601.81 117 727.16 117 863.46c0 11.04-8.95 20-20 20z" fill="#0072F0" p-id="7681"></path></svg>