<?xml version="1.0" standalone="no"?><!DOCTYPE svg PUBLIC "-//W3C//DTD SVG 1.1//EN" "http://www.w3.org/Graphics/SVG/1.1/DTD/svg11.dtd"><svg t="1611837493707" class="icon" viewBox="0 0 1024 1024" version="1.1" xmlns="http://www.w3.org/2000/svg" p-id="2445" xmlns:xlink="http://www.w3.org/1999/xlink" width="25" height="25"><defs><style type="text/css"></style></defs><path d="M899.6864 424.2432L537.088 110.6432c-13.9264-12.032-34.9184-12.032-48.7936 0L125.6448 424.2432c-11.9296 10.2912-16.0768 26.4704-10.5472 41.2672s19.2 24.2688 34.9696 24.2688h37.12v334.848c0 50.6368 38.6048 91.8528 86.016 91.8528h122.8288c29.3376 0 53.248-25.1904 53.248-56.1664v-160.0512c0-2.0992 1.1264-3.2256 1.3824-3.328h124.0064c0.3072 0.1024 1.4336 1.2288 1.4336 3.328v160.0512c0 30.976 23.9104 56.1664 53.248 56.1664h122.8288c47.4112 0 86.016-41.216 86.016-91.8528v-334.848h37.12c15.7696 0 29.4912-9.5232 34.9696-24.2688s1.3312-30.976-10.5984-41.2672z m-262.5024 71.424H388.1472c-14.1312 0-25.6-11.4688-25.6-25.6s11.4688-25.6 25.6-25.6h249.0368c14.1312 0 25.6 11.4688 25.6 25.6s-11.4688 25.6-25.6 25.6z" fill="#9fc6ff" p-id="2446"></path></svg>